<svg width="84" height="25" viewBox="0 0 84 25" xmlns="http://www.w3.org/2000/svg">
    <g fill-rule="nonzero" fill="none">
        <path d="M20.858 13.922a5.045 5.045 0 0 0-2.73-7.001 5.935 5.935 0 0 1-1.273 2.251 2.51 2.51 0 1 1-1.912.385A5.042 5.042 0 1 0 7.433 5.8a5.89 5.89 0 0 1 2.587.092 2.52 2.52 0 1 1 .984 1.372A3.976 3.976 0 0 0 8.52 6.61a5.042 5.042 0 0 0-1.724 9.77 3.07 3.07 0 1 1-1.942-.073 5.984 5.984 0 0 1-1.659-2.046 5.603 5.603 0 1 0 4.598-.204 2.52 2.52 0 1 1 3.247-2.418 2.55 2.55 0 0 1-1.556 2.333 6.547 6.547 0 0 1 1.774 1.903c.447-.29.845-.65 1.18-1.064a5.045 5.045 0 0 0 5.804 1.509 3.082 3.082 0 1 1-1.662 1.256 5.902 5.902 0 0 1-2.586-.492c-.211.4-.431 1.437-.431 2.176a5.603 5.603 0 1 0 7.296-5.337z" fill="#031131"/>
    </g>
</svg>